<svg width="16" height="16" viewBox="0 0 16 16" fill="none" xmlns="http://www.w3.org/2000/svg">
<path fill-rule="evenodd" clip-rule="evenodd" d="M15 3H8.15108L6.84173 5.11511H13.6906L15 3ZM4.72662 13.6763C6.78477 13.6763 8.45324 12.0078 8.45324 9.94964C8.45324 9.37241 8.322 8.82584 8.08774 8.33813H11.777L13.0863 6.22302H4.72662C2.66846 6.22302 1 7.89149 1 9.94964C1 12.0078 2.66846 13.6763 4.72662 13.6763ZM4.77698 11.6619C5.6948 11.6619 6.43885 10.9178 6.43885 10C6.43885 9.08217 5.6948 8.33813 4.77698 8.33813C3.85915 8.33813 3.11511 9.08217 3.11511 10C3.11511 10.9178 3.85915 11.6619 4.77698 11.6619Z" fill="#89D185"/>
</svg>
